<svg id="Layer_1" data-name="Layer 1" xmlns="http://www.w3.org/2000/svg" viewBox="0 0 28.34646 28.34646"><defs><style>.cls-1{fill:#fff;stroke:#4375ba;stroke-miterlimit:10;}.cls-2{fill:#4375ba;}</style></defs><circle class="cls-1" cx="14.66236" cy="14.36135" r="10.19108"/><path class="cls-2" d="M11.46948,18.50768c-.09141-.03571-.16928-.06856-.24879-.09682a2.61726,2.61726,0,0,1-1.7958-2.54257q-.00172-3.0927.00014-6.1854a2.61343,2.61343,0,0,1,2.67438-2.66183q2.56907-.00225,5.13814.00008a2.61286,2.61286,0,0,1,2.6632,2.67307q.00245,3.02724.00039,6.05449a2.61343,2.61343,0,0,1-1.9008,2.69265c-.0405.0144-.07833.03633-.151.07059.30858.50547.61229,1.00283.91585,1.50028.17586.28818.35766.573.52545.86578a.521.521,0,0,1-.15424.74394.52656.52656,0,0,1-.735-.19381.12374.12374,0,0,1-.01544-.02875c-.239-.69291-.747-.79352-1.42183-.77489-1.755.04845-3.51227.02027-5.26857.01107a.41608.41608,0,0,0-.44027.24286,5.30175,5.30175,0,0,1-.32173.53053.52359.52359,0,1,1-.89258-.54043c.438-.72786.88566-1.45,1.32868-2.17486C11.40308,18.63892,11.43058,18.58054,11.46948,18.50768Zm3.18081-4.67623c.85023,0,1.70047.00254,2.55069-.0008a1.052,1.052,0,0,0,1.129-1.11914q.00579-1.48788.00036-2.97581a1.05423,1.05423,0,0,0-1.13691-1.144q-2.53436-.00364-5.0687.0001a1.05087,1.05087,0,0,0-1.12894,1.11882q-.00562,1.4879-.00035,2.97581a1.05514,1.05514,0,0,0,1.13689,1.14432C12.97161,13.83374,13.811,13.83146,14.65029,13.83145Zm-2.58575,5.73791h5.19713c-.19668-.32211-.36245-.61461-.55244-.89042a.3676.3676,0,0,0-.26453-.12812q-1.78243-.0126-3.565.00007a.36742.36742,0,0,0-.2639.12956C12.4261,18.95616,12.26044,19.24844,12.06454,19.56936Zm.50182-3.653a.52335.52335,0,1,0-.50485.53306A.53068.53068,0,0,0,12.56636,15.91636Zm5.2388.01708a.5231.5231,0,1,0-.522.516A.53014.53014,0,0,0,17.80516,15.93344Z"/></svg>